<svg id="Layer_1" data-name="Layer 1" xmlns="http://www.w3.org/2000/svg" xmlns:xlink="http://www.w3.org/1999/xlink" viewBox="0 0 405 125"><defs><style>.cls-1{fill:url(#linear-gradient);}.cls-2{fill:#7cdd20;}.cls-3{fill:#a5e720;}</style><linearGradient id="linear-gradient" x1="79.25" y1="97.61" x2="197.81" y2="97.61" gradientTransform="translate(42.85 -91.2) rotate(25.08)" gradientUnits="userSpaceOnUse"><stop offset="0" stop-color="#3c3"/><stop offset="1" stop-color="#ff0"/></linearGradient></defs><title>Artboard 1</title><path class="cls-1" d="M168,56.39a25,25,0,0,0-10.17-36.94,25,25,0,0,0-18.41-1.14,25.19,25.19,0,0,0-49.09,8.07A25.21,25.21,0,0,0,78.81,73.43C84,81.19,96,88.16,100.28,90.49c0,2.93,2.59,6.28,6.65,8.18s8.28,1.73,10.55-.13c5.57,2.23,23.93,8.87,32.44,3.87a25.2,25.2,0,0,0,18.1-46Zm-15.85,44.12a8.35,8.35,0,0,0,1.05-1.58c-12.48.63-13.73-9.08-26.35-7.31-.5-1.54,8.92-1.62,10.48-15.4-10.83,5.38-16.87-1.22-24,8.85,3.13-12-5.81-12.37-8.62-24.14-9.57,10-3.6,17.31-5.1,17.91-6.72-10.82-15-5.56-22.5-15.55a8.76,8.76,0,0,0-.16,6.37,22.67,22.67,0,0,1,16-37.82A22.39,22.39,0,0,1,95,22.19a22.66,22.66,0,0,1,42,2.38,22.65,22.65,0,0,1,27.47,31.18,22.91,22.91,0,0,1-1.76,3.07,22.67,22.67,0,0,1-10.56,41.69Z"/><path class="cls-2" d="M105.88,102.58S93.13,80,81.09,82.7c11.81,2.36,26.35,23.55,12.1,38.29l3.34,1.56,3.35,1.57c2.18-20.39,27.77-22.8,37.14-15.24C131.41,97.88,105.88,102.58,105.88,102.58Z"/><path class="cls-3" d="M252.54,107.3H204.67L197,124H171L228.2,1.38h.74L286.17,124H260.11Zm-9.35-20.49-14.55-32L214,86.81Z"/><path class="cls-3" d="M301.87,1h24.05V124H301.87Z"/></svg>